Coordinates
version=1
nRows=6
nColumns=36
inDegrees=yes

Units are S.I. units (second, meters, Newtons, ...)
If the header above contains a line with 'inDegrees', this indicates whether rotational values are in degrees (yes) or radians (no).

endheader
time	pelvis_tilt	pelvis_list	pelvis_rotation	pelvis_tx	pelvis_ty	pelvis_tz	hip_flexion_r	hip_adduction_r	hip_rotation_r	knee_angle_r	knee_angle_r_beta	ankle_angle_r	subtalar_angle_r	mtp_angle_r	hip_flexion_l	hip_adduction_l	hip_rotation_l	knee_angle_l	knee_angle_l_beta	ankle_angle_l	subtalar_angle_l	mtp_angle_l	lumbar_extension	lumbar_bending	lumbar_rotation	arm_flex_r	arm_add_r	arm_rot_r	elbow_flex_r	pro_sup_r	arm_flex_l	arm_add_l	arm_rot_l	elbow_flex_l	pro_sup_l
      1.20000000	    -14.30772981	     -2.31100460	     -0.03150253	     -0.78400845	      1.33336523	     -0.58659374	     37.20709363	      0.82235210	      1.41475013	     63.63532834	      1.11064600	      1.17496939	    -11.66085443	     -4.29390752	     32.39695768	     -2.55248252	      4.34840858	     56.08202347	      0.97881596	      4.17759597	    -14.97177341	     -4.29390752	    -17.48321902	      0.99467295	     -4.01106651	     41.59805799	    -11.51856301	      9.89153058	    118.03505333	    105.73999324	     23.50533094	    -16.45101361	      6.48228158	    119.90984503	     99.65557591
      1.21000000	    -14.21701077	     -2.45121518	      0.07815233	     -0.77619879	      1.33629391	     -0.58690210	     38.38220468	      0.71381219	      1.22617736	     63.06539637	      1.10069881	      1.33039350	    -11.90605616	     -4.32382222	     33.36855832	     -2.71783826	      4.54188044	     55.07893379	      0.96130874	      4.19855719	    -15.13062437	     -4.32382222	    -18.17682388	      1.17288739	     -4.14132332	     40.01383425	    -12.15871030	      9.07593443	    116.51164793	    105.84022404	     22.22383506	    -16.49630309	      5.65821480	    118.35622185	     99.59321193
      1.22000000	    -14.11360920	     -2.60057503	      0.21384432	     -0.76826423	      1.33846855	     -0.58721383	     39.35097473	      0.56759157	      1.01816896	     61.98255878	      1.08179973	      1.26993804	    -12.04849908	     -4.34695366	     34.19503995	     -2.91235963	      4.71378942	     53.69913358	      0.93722669	      4.08435432	    -15.14596301	     -4.34695366	    -18.91068352	      1.32889692	     -4.25137963	     38.48077507	    -12.88266782	      8.28211305	    115.17940195	    105.86299482	     21.02289830	    -16.54764986	      4.90734595	    116.94460285	     99.47663587
      1.23000000	    -14.07313212	     -2.78078141	      0.43021625	     -0.76000351	      1.33971952	     -0.58790648	     40.18605673	      0.32040988	      0.64806329	     60.44126999	      1.05489917	      1.01817874	    -12.24129505	     -4.36471296	     34.97514562	     -3.07229229	      4.91500425	     52.03688188	      0.90821492	      3.76800753	    -15.05237906	     -4.36471296	    -19.53401148	      1.59023819	     -4.40556766	     36.92379405	    -13.72323545	      7.54239993	    113.97654077	    105.84546551	     19.81212099	    -16.67760599	      4.24566526	    115.62299735	     99.33806703
      1.24000000	    -14.11028751	     -3.06772012	      0.77353181	     -0.75165660	      1.34009566	     -0.58884608	     40.91296587	      0.10834365	      0.01600188	     58.40216764	      1.01931012	     -1.14933032	    -14.59660861	     -4.48695961	     35.78133491	     -3.17836374	      5.39282853	     50.13707775	      0.87505708	      1.98359209	    -15.96166170	     -4.48695961	    -19.98276670	      1.99237536	     -4.32234480	     35.21895230	    -14.68670728	      6.22276476	    112.93658409	    106.32514643	     19.03750989	    -16.55824069	      3.85016503	    113.69451466	     99.33507101
      1.25000000	    -14.01522830	     -3.09963963	      1.01805211	     -0.74278428	      1.33977135	     -0.58965577	     41.35659418	     -0.31533183	     -0.38080673	     56.21904076	      0.98120736	     -2.00487881	    -15.31649433	     -4.53017141	     36.13747117	     -3.13009079	      5.64753906	     47.81566879	      0.83454085	      0.66600328	    -15.62319771	     -4.53017141	    -20.56614848	      2.12334252	     -4.44384782	     33.65650877	    -15.47794875	      5.28717242	    111.94081166	    106.41546230	     17.96985226	    -16.66944438	      3.21737778	    112.36203145	     99.21449226
